<svg xmlns="http://www.w3.org/2000/svg" xmlns:xlink="http://www.w3.org/1999/xlink" version="1.1" x="0px" y="0px" viewBox="0 0 50 62.5" style="enable-background:new 0 0 50 50;" xml:space="preserve"><style type="text/css">
	.st0{fill:none;stroke:#502781;stroke-width:2;stroke-miterlimit:10;}
	.st1{fill:none;stroke:#502781;stroke-width:2;stroke-linejoin:round;stroke-miterlimit:10;}
	.st2{fill:none;stroke:#502781;stroke-width:2;stroke-miterlimit:10;stroke-dasharray:2,2;}
	.st3{fill:none;stroke:#502781;stroke-width:2;stroke-linecap:round;stroke-linejoin:round;stroke-miterlimit:10;}
	.st4{fill:none;stroke:#502781;stroke-width:2;stroke-linecap:round;stroke-miterlimit:10;}
	.st5{fill:none;stroke:#502781;stroke-width:2;stroke-linejoin:bevel;stroke-miterlimit:10;}
	.st6{fill:none;stroke:#502781;stroke-width:2;stroke-linejoin:round;stroke-miterlimit:10;stroke-dasharray:2,2;}
	.st7{fill:none;stroke:#502781;stroke-width:2;stroke-miterlimit:10;stroke-dasharray:2,3;}
</style><g><g><rect x="2" y="2" class="st0" width="46" height="39"/><line class="st0" x1="17" y1="41" x2="17" y2="48"/>
<line class="st0" x1="33" y1="41" x2="33" y2="48"/><line class="st0" x1="12" y1="48" x2="38" y2="48"/>
<line class="st0" x1="48" y1="35" x2="2" y2="35"/></g><g>
<polyline class="st0" points="36,17.8 36,23.4 36,29 25,29 14,29 14,23.4 14,17.8   "/><g>
<path class="st0" d="M30.4,8h5.4l2.1,5.9c0.7,2-0.8,4.1-3,4.1h0c-1.5,0-2.9-1.1-3.1-2.6L30.4,8z"/>
<path class="st0" d="M25,8h5.4l1.1,6.4c0.3,1.9-1.2,3.6-3.1,3.6h-0.2c-1.8,0-3.2-1.4-3.2-3.1V8z"/>
<path class="st0" d="M19.6,8H25v6.9c0,1.7-1.4,3.1-3.2,3.1h-0.2c-2,0-3.5-1.7-3.1-3.6L19.6,8z"/>
<path class="st0" d="M14.3,8h5.4l-1.3,7.4C18,16.9,16.7,18,15.2,18h0c-2.2,0-3.7-2.1-3-4.1L14.3,8z"/></g>
<line class="st0" x1="12" y1="14" x2="38" y2="14"/></g></g>
</svg>
